<svg width="52" height="52" viewBox="0 0 52 52" fill="none" xmlns="http://www.w3.org/2000/svg">
<g clip-path="url(#clip0)">
<path d="M41.4842 12.7501C43.2529 12.7501 44.6867 11.3163 44.6871 9.5476C44.6871 7.7789 43.2533 6.34509 41.4846 6.34509C39.7159 6.34509 38.2821 7.7789 38.2821 9.5476C38.2842 11.3155 39.7167 12.7481 41.4842 12.7501ZM41.4842 7.81415C42.4417 7.81415 43.2176 8.59009 43.2181 9.5476C43.2181 10.5047 42.4417 11.281 41.4846 11.281C40.5271 11.281 39.7512 10.5051 39.7512 9.5476C39.752 8.5909 40.5275 7.81538 41.4842 7.81415Z" fill="#CF0038"/>
<path d="M43.8714 12.2325C43.6345 12.2416 43.4156 12.3608 43.2795 12.5547C43.1463 12.74 42.9856 12.9044 42.8036 13.0421C42.329 13.395 41.733 13.5434 41.1481 13.4544C40.5615 13.3593 40.0369 13.0347 39.6897 12.5519C39.5532 12.3584 39.3343 12.2403 39.0978 12.2325C37.4689 12.2325 36.1781 13.6045 36.1781 15.2338V18.3711C36.1724 18.5568 36.2449 18.7363 36.3777 18.8663C36.5109 18.9958 36.6921 19.0638 36.8778 19.0532H46.091C46.275 19.0634 46.4546 18.995 46.5853 18.865C46.7161 18.7347 46.7854 18.5556 46.7763 18.3711V15.2338C46.7763 13.6045 45.5003 12.2325 43.8714 12.2325ZM45.3073 17.5841H37.6472V15.2338C37.6406 14.5382 38.121 13.9328 38.7998 13.7811C40.0762 15.1485 42.174 15.3449 43.682 14.2373C43.8575 14.1013 44.0198 13.9484 44.1661 13.7811C44.8425 13.934 45.3188 14.5402 45.3073 15.2338V17.5841Z" fill="#CF0038"/>
<path d="M41.5354 2.26172C37.6123 2.25967 34.0184 4.45343 32.2263 7.94327C30.4347 11.4331 30.7466 15.6321 33.0346 18.819L25.9996 21.0374L18.9646 18.819C21.6777 15.0303 21.5572 9.90379 18.6695 6.24672C15.7818 2.58923 10.8228 1.28371 6.5083 3.0438C2.19375 4.8043 -0.435721 9.20656 0.0590213 13.84C0.554174 18.4735 4.05467 22.2211 8.64385 23.0303L6.40788 25.2654C3.76078 27.9125 3.89563 32.3586 6.70751 35.1758C9.77229 38.2464 13.076 41.5559 15.8297 44.3091C15.5764 45.2961 15.8588 46.3438 16.5745 47.0698L16.6106 47.1058C17.1516 47.6436 17.8849 47.9432 18.6477 47.9383C18.8933 47.9379 19.138 47.9084 19.3765 47.8494L19.6532 48.1252C20.0918 48.5638 20.648 48.8655 21.2547 48.9938C21.7793 49.4512 22.4532 49.7013 23.1496 49.6959C23.1849 49.6959 23.2205 49.6951 23.2562 49.6939C24.0624 49.6632 24.8265 49.3266 25.3934 48.7528L25.9996 48.1465L26.6062 48.7528C27.1731 49.3266 27.9372 49.6632 28.743 49.6935C28.7787 49.6947 28.8139 49.6955 28.8496 49.6955C29.5456 49.7013 30.2195 49.4516 30.7437 48.9946C31.3504 48.8643 31.9062 48.5622 32.346 48.1248L32.6243 47.8473C33.6118 48.1006 34.6599 47.8195 35.3882 47.1058L35.4251 47.0689C36.1383 46.3418 36.4199 45.2957 36.1683 44.3091C38.9424 41.5358 42.1917 38.2816 45.2917 35.1754C48.1036 32.3578 48.2384 27.9117 45.5913 25.265L43.3554 23.0303C48.6983 22.0867 52.4337 17.2167 51.9599 11.8119C51.4864 6.40739 46.9608 2.26131 41.5354 2.26172ZM1.46947 12.7251C1.46906 7.75759 5.49627 3.73037 10.4638 3.73037C15.4313 3.73037 19.4585 7.75759 19.4585 12.7251C19.4585 17.6926 15.4313 21.7194 10.4638 21.7194C5.49873 21.7141 1.4748 17.6902 1.46947 12.7251ZM24.3543 47.7141C24.3485 47.7198 24.342 47.7252 24.3358 47.7309C24.5092 47.4633 24.6359 47.1677 24.7105 46.857L24.9609 47.1075L24.3543 47.7141ZM34.3869 46.0303L34.3496 46.0672C33.7737 46.6431 32.7862 46.593 32.1492 45.9557L21.5293 35.3357L20.4906 36.3744L29.7382 45.6224C30.3748 46.2594 30.4244 47.246 29.8563 47.8145L29.8452 47.8252C29.5661 48.1002 29.1845 48.2453 28.7934 48.2257C28.3594 48.2072 27.9486 48.0244 27.6449 47.7137L18.3977 38.4669L17.359 39.5056L22.8098 44.9567C23.1201 45.2605 23.3029 45.6712 23.3213 46.1053C23.341 46.4967 23.1959 46.8783 22.9205 47.1575L22.886 47.1919C22.3118 47.7662 21.3264 47.7178 20.6894 47.0837C17.7132 44.1218 12.4485 38.8481 7.74741 34.138C5.50693 31.8934 5.37166 28.379 7.44655 26.3041L10.563 23.1877C13.3441 23.1627 15.9998 22.0281 17.9407 20.0364L23.557 21.8075L20.4455 22.7888C20.1156 22.8929 19.9032 23.2131 19.9352 23.5574L20.0143 24.4055C20.0549 25.4818 20.5386 26.4939 21.351 27.2013C22.1839 27.9207 23.2783 28.2613 24.3723 28.1425L24.813 28.0994L34.9751 38.2755C35.6116 38.9128 35.6608 39.8995 35.0853 40.475C35.0833 40.477 35.0816 40.4791 35.0796 40.4811C34.8009 40.7525 34.4217 40.8955 34.0331 40.8758C33.622 40.8586 33.231 40.693 32.9326 40.4098L29.6157 37.0942C27.0879 34.5672 24.9044 32.3853 24.6945 32.1734L23.6521 33.2083C23.864 33.4219 26.048 35.6054 28.577 38.1332L31.8467 41.4013L31.8459 41.4021C31.8668 41.423 31.8877 41.444 31.9095 41.4644C32.7915 42.3461 33.6089 43.163 34.2754 43.8304C34.9128 44.4682 34.9624 45.4544 34.3869 46.0303ZM44.2518 34.138C41.2727 37.1228 38.1562 40.2446 35.4563 42.9442C35.4108 42.8925 35.364 42.8413 35.3145 42.7921C35.1476 42.6249 34.9714 42.449 34.7865 42.2641C35.2931 42.1424 35.7559 41.8829 36.1236 41.514C36.1265 41.5112 36.1293 41.5087 36.1322 41.5058C37.2717 40.3569 37.2201 38.4448 36.0141 37.2376L27.0379 28.2482L27.6302 27.6551C27.849 27.4358 27.9068 27.1021 27.7744 26.8218C27.6416 26.5414 27.3473 26.3746 27.0387 26.4049L24.2289 26.6804C23.537 26.7591 22.8434 26.5459 22.3146 26.093C21.8031 25.6446 21.5014 25.0039 21.4809 24.3239C21.4809 24.3116 21.4797 24.2993 21.4785 24.287L21.4531 24.0115L34.0585 20.0364C35.999 22.0281 38.6547 23.1622 41.4354 23.1877L44.5518 26.3041C46.6271 28.379 46.4923 31.8934 44.2518 34.138ZM41.5354 21.7194C36.5679 21.7194 32.5411 17.6926 32.5411 12.7251C32.5411 7.75759 36.5679 3.73078 41.5354 3.73078C46.5029 3.73078 50.5297 7.75759 50.5297 12.7251C50.5244 17.6902 46.5005 21.7141 41.5354 21.7194Z" fill="#CF0038"/>
<path d="M10.413 12.7501C12.1817 12.7501 13.6155 11.3163 13.6155 9.5476C13.6155 7.7789 12.1817 6.34509 10.413 6.34509C8.64426 6.34509 7.21045 7.7789 7.21045 9.5476C7.2125 11.3155 8.64508 12.7481 10.413 12.7501ZM10.413 7.81415C11.3701 7.81415 12.1464 8.5905 12.1464 9.5476C12.1464 10.5051 11.3701 11.281 10.413 11.281C9.45544 11.281 8.67951 10.5051 8.67951 9.5476C8.68033 8.5909 9.45585 7.81538 10.413 7.81415Z" fill="#CF0038"/>
<path d="M15.7162 18.3711V15.2338C15.7162 13.6045 14.4287 12.2325 12.7998 12.2325C12.5629 12.2416 12.344 12.3608 12.2079 12.5547C12.0747 12.74 11.914 12.9044 11.732 13.0421C10.7356 13.7635 9.34314 13.543 8.61844 12.5486C8.48154 12.3563 8.26225 12.2391 8.02615 12.2325C6.39682 12.2325 5.11794 13.6045 5.11794 15.2338V18.3711C5.10975 18.5556 5.17943 18.7351 5.31059 18.865C5.44176 18.995 5.6217 19.0634 5.80616 19.0532H15.0194C15.2046 19.0638 15.3858 18.9958 15.5182 18.8659C15.6506 18.7363 15.7227 18.5568 15.7162 18.3711ZM14.2471 17.5841H6.58701V15.2338C6.57799 14.5394 7.05634 13.9336 7.73389 13.7811C9.00907 15.1485 11.1065 15.3449 12.6133 14.2373C12.7904 14.1013 12.9539 13.9484 13.1015 13.7811C13.779 13.9336 14.257 14.5394 14.2471 15.2338V17.5841Z" fill="#CF0038"/>
</g>
<defs>
<clipPath id="clip0">
<rect width="52" height="52" fill="white"/>
</clipPath>
</defs>
</svg>
