<svg width="52" height="52" viewBox="0 0 52 52" fill="none" xmlns="http://www.w3.org/2000/svg">
<g clip-path="url(#clip0)">
<path d="M51.9044 12.3308C51.7254 11.6653 51.2888 11.0979 50.6913 10.7539C50.0935 10.4082 49.3827 10.3147 48.7159 10.4937C48.0499 10.6731 47.4825 11.1093 47.1385 11.7067L46.7053 12.4607C46.2936 12.2242 45.7677 12.3634 45.5269 12.773L43.3259 16.5246L42.572 16.0914C42.3722 15.9759 42.1345 15.9445 41.9119 16.0046C41.6889 16.0651 41.4994 16.2115 41.3847 16.4121C41.1499 16.8263 41.2929 17.3526 41.7054 17.5904L42.4594 18.0237L35.094 30.7875L33.2742 35.649L32.4077 37.269C31.9004 38.1516 31.9546 39.2487 32.5465 40.0768L30.5968 42.4682L30.051 41.0994C29.8048 40.4893 29.2348 40.0713 28.5794 40.0201C27.9236 39.9685 27.2953 40.2925 26.9573 40.8565L26.6454 41.385L26.351 37.9189C26.2833 37.099 25.6482 36.4398 24.8316 36.3407C24.0146 36.2422 23.2411 36.7317 22.9801 37.5119L20.8485 43.9067C20.6995 44.359 20.9433 44.8464 21.3943 44.9987C21.4789 45.0381 21.5699 45.0618 21.663 45.0677C22.0353 45.069 22.367 44.8316 22.4863 44.4788L24.609 38.0839L24.9124 41.6016C24.975 42.3522 25.5145 42.9763 26.2481 43.1464C26.9818 43.3165 27.7409 42.9932 28.1271 42.3471L28.4479 41.8183L28.9852 43.179C29.2133 43.7523 29.729 44.1614 30.3396 44.2524C30.9501 44.3434 31.5628 44.1026 31.9486 43.6207L33.9677 41.0647C34.1911 41.1231 34.4213 41.1523 34.6523 41.1515C35.581 41.1586 36.4433 40.6695 36.9138 39.8686L37.7803 38.4216L41.0818 34.4097L48.525 21.4898L49.279 21.923C49.48 22.0381 49.6264 22.2281 49.686 22.4519C49.7461 22.674 49.7148 22.911 49.5997 23.1103L46.1337 29.1154C46.0029 29.3126 45.9585 29.5546 46.011 29.7856C46.0634 30.0162 46.2077 30.2155 46.4108 30.3369C46.6105 30.4528 46.8483 30.4841 47.0708 30.424C47.2938 30.3635 47.4834 30.2171 47.598 30.0166L51.0641 24.0115C51.4098 23.4136 51.5033 22.7028 51.3239 22.036C51.1445 21.37 50.7083 20.8026 50.1108 20.4587L49.3569 20.0254L51.5232 16.2733C51.7597 15.8616 51.6205 15.3361 51.2113 15.095L51.6446 14.341C51.9996 13.7338 52.0935 13.0086 51.9044 12.3308ZM48.6376 12.5732C48.7522 12.3727 48.9426 12.2259 49.1665 12.1662C49.389 12.1112 49.6243 12.1421 49.8248 12.253C50.0258 12.3676 50.1722 12.558 50.2323 12.7814C50.2873 13.004 50.2564 13.2392 50.1455 13.4398L49.7123 14.1937L48.2043 13.3272L48.6376 12.5732ZM36.827 36.7668L36.3938 36.5155L35.1113 35.77L36.3417 32.4774L39.0712 34.0543L36.827 36.7668ZM34.2275 39.2708C33.8615 39.0156 33.7489 38.5248 33.9677 38.1356L34.4009 37.382L35.9085 38.2485L35.4752 38.9936C35.3538 39.2043 35.1498 39.3541 34.9125 39.407C34.6751 39.4595 34.4268 39.4104 34.2275 39.2708ZM40.0591 32.6335L37.061 30.9005L43.9932 18.8902L46.9913 20.6232L40.0591 32.6335ZM47.8578 19.1242L44.8597 17.3911L46.5927 14.393L49.5908 16.1261L47.8578 19.1242Z" fill="#CF0038"/>
<path d="M13.6735 38.8374L10.6064 41.8964L8.76928 40.0593C8.43122 39.7234 7.88542 39.7234 7.54736 40.0593C7.38319 40.2222 7.29095 40.4435 7.29095 40.6745C7.29095 40.9055 7.38319 41.1272 7.54736 41.2897L9.38448 43.1268C9.70942 43.4492 10.1486 43.6299 10.6064 43.6295C11.0667 43.632 11.5097 43.4513 11.8368 43.1268L14.8954 40.0593C15.1899 39.7153 15.17 39.2029 14.8501 38.8831C14.5299 38.5628 14.0175 38.5429 13.6735 38.8374Z" fill="#CF0038"/>
<path d="M3.46606 41.1684C3.46606 45.2366 6.76375 48.5338 10.8315 48.5338C14.8992 48.5338 18.1969 45.2366 18.1969 41.1684C18.1969 40.6899 17.8089 40.3019 17.3304 40.3019C16.8518 40.3019 16.4639 40.6899 16.4639 41.1684C16.4639 44.2791 13.9421 46.8008 10.8315 46.8008C7.72081 46.8008 5.1991 44.2791 5.1991 41.1684C5.1991 38.0577 7.72081 35.536 10.8315 35.536C12.0509 35.5326 13.2377 35.9282 14.2108 36.6628C14.5937 36.95 15.137 36.8722 15.4239 36.4893C15.7111 36.1064 15.6337 35.5635 15.2508 35.2762C13.0189 33.6024 10.0327 33.3333 7.5376 34.5807C5.04213 35.8284 3.46606 38.3789 3.46606 41.1684Z" fill="#CF0038"/>
<path d="M31.1947 6.9408C31.6733 6.9408 32.0613 6.55324 32.0613 6.07428C32.0613 5.59575 31.6733 5.20776 31.1947 5.20776H8.66523C8.18669 5.20776 7.79871 5.59575 7.79871 6.07428V9.54036C7.79871 10.0193 8.18669 10.4069 8.66523 10.4069H31.1947C31.6733 10.4069 32.0613 10.0193 32.0613 9.54036C32.0613 9.06183 31.6733 8.67384 31.1947 8.67384H9.53175V6.9408H31.1947Z" fill="#CF0038"/>
<path d="M11.2648 12.1399C10.7862 12.1399 10.3983 12.5279 10.3983 13.0064C10.3983 13.4854 10.7862 13.8729 11.2648 13.8729H28.5952C29.0737 13.8729 29.4617 13.4854 29.4617 13.0064C29.4617 12.5279 29.0737 12.1399 28.5952 12.1399H11.2648Z" fill="#CF0038"/>
<path d="M33.7943 18.2056H14.7308C14.2523 18.2056 13.8643 18.5936 13.8643 19.0721C13.8643 19.551 14.2523 19.9386 14.7308 19.9386H33.7943C34.2728 19.9386 34.6608 19.551 34.6608 19.0721C34.6608 18.5936 34.2728 18.2056 33.7943 18.2056Z" fill="#CF0038"/>
<path d="M25.129 24.2712C25.129 23.7926 24.741 23.4047 24.2625 23.4047H6.93213C6.4536 23.4047 6.06561 23.7926 6.06561 24.2712C6.06561 24.7501 6.4536 25.1377 6.93213 25.1377H24.2625C24.741 25.1377 25.129 24.7501 25.129 24.2712Z" fill="#CF0038"/>
<path d="M33.7942 23.4047H27.7286C27.2501 23.4047 26.8621 23.7926 26.8621 24.2712C26.8621 24.7501 27.2501 25.1377 27.7286 25.1377H33.7942C34.2728 25.1377 34.6608 24.7501 34.6608 24.2712C34.6608 23.7926 34.2728 23.4047 33.7942 23.4047Z" fill="#CF0038"/>
<path d="M15.5973 29.4702C16.0759 29.4702 16.4638 29.0827 16.4638 28.6037C16.4638 28.1252 16.0759 27.7372 15.5973 27.7372H6.93213C6.4536 27.7372 6.06561 28.1252 6.06561 28.6037C6.06561 29.0827 6.4536 29.4702 6.93213 29.4702H15.5973Z" fill="#CF0038"/>
<path d="M19.0634 29.4702H25.1291C25.6076 29.4702 25.9956 29.0827 25.9956 28.6037C25.9956 28.1252 25.6076 27.7372 25.1291 27.7372H19.0634C18.5849 27.7372 18.1969 28.1252 18.1969 28.6037C18.1969 29.0827 18.5849 29.4702 19.0634 29.4702Z" fill="#CF0038"/>
<path d="M38.9934 39.8685C38.5148 39.8685 38.1268 40.2565 38.1268 40.7351V49.4003C38.1268 49.8792 37.7388 50.2668 37.2603 50.2668H2.59956C2.12103 50.2668 1.73304 49.8792 1.73304 49.4003V2.60822C1.73304 2.12969 2.12103 1.74171 2.59956 1.74171H37.2603C37.7388 1.74171 38.1268 2.12969 38.1268 2.60822V18.8817C38.1268 19.3602 38.5148 19.7482 38.9934 19.7482C39.4719 19.7482 39.8599 19.3602 39.8599 18.8817V2.60822C39.8599 1.17263 38.6959 0.00866699 37.2603 0.00866699H2.59956C1.16396 0.00866699 0 1.17263 0 2.60822V49.4003C0 50.8363 1.16396 51.9998 2.59956 51.9998H37.2603C38.6959 51.9998 39.8599 50.8363 39.8599 49.4003V40.7351C39.8599 40.2565 39.4719 39.8685 38.9934 39.8685Z" fill="#CF0038"/>
</g>
<defs>
<clipPath id="clip0">
<rect width="52" height="52" fill="white"/>
</clipPath>
</defs>
</svg>
