<svg width="52" height="52" viewBox="0 0 52 52" fill="none" xmlns="http://www.w3.org/2000/svg">
<g clip-path="url(#clip0)">
<path d="M32.6378 6.47933C26.918 3.58906 20.0279 4.69416 15.493 9.22914C10.2224 14.4996 9.69486 22.9035 14.266 28.7773C14.4276 28.9849 14.6691 29.0936 14.9133 29.0936C15.0892 29.0936 15.2664 29.0372 15.416 28.9207C15.7732 28.6427 15.8374 28.1279 15.5595 27.7707C11.4951 22.5482 11.9648 15.0752 16.652 10.388C20.6851 6.35471 26.8121 5.37179 31.8988 7.94204C32.3026 8.14638 32.7956 7.98408 32.9998 7.58017C33.2038 7.17625 33.0419 6.68337 32.6378 6.47933Z" fill="#CF0038"/>
<path d="M39.1816 13.0243C38.9774 12.6204 38.4848 12.4583 38.0805 12.6622C37.6766 12.8663 37.5144 13.359 37.7185 13.7632C40.2869 18.849 39.3035 24.9753 35.2713 29.0073C30.584 33.6944 23.1111 34.1641 17.8885 30.0998C17.5312 29.8219 17.0165 29.8861 16.7385 30.2432C16.4606 30.6004 16.5249 31.1152 16.8821 31.3932C19.5576 33.4755 22.758 34.4996 25.9482 34.4996C29.7615 34.4996 33.5605 33.036 36.4303 30.1661C40.9642 25.6324 42.0698 18.7436 39.1816 13.0243Z" fill="#CF0038"/>
<path d="M37.0643 9.90319C36.8613 9.67345 36.648 9.44656 36.4303 9.22901C36.2127 9.01136 35.9859 8.79808 35.7562 8.59506C35.417 8.29524 34.8991 8.32734 34.5996 8.66646C34.2997 9.00547 34.3315 9.52334 34.6707 9.82305C34.8753 10.0038 35.0774 10.194 35.2714 10.3878C35.4652 10.5818 35.6553 10.7838 35.8362 10.9885C35.9981 11.1717 36.2238 11.2652 36.4505 11.2652C36.6434 11.2652 36.837 11.1975 36.9929 11.0598C37.3321 10.7602 37.364 10.2423 37.0643 9.90319Z" fill="#CF0038"/>
<path d="M45.3037 21.1667C45.8501 20.2702 45.8501 19.1567 45.3035 18.2604L44.2254 16.4925C44.0834 16.2595 44.0284 15.9828 44.0709 15.7135L44.3922 13.6718C44.5561 12.6313 44.1286 11.6001 43.2769 10.9805L41.6061 9.76517C41.3852 9.60439 41.2282 9.36988 41.1639 9.1044L40.6773 7.09356C40.4303 6.07214 39.6422 5.28422 38.6209 5.03702L36.61 4.55033C36.3445 4.48604 36.1098 4.32902 35.9492 4.10812L34.7337 2.43691C34.1142 1.5852 33.0829 1.15752 32.0427 1.32145L30.0003 1.64279C29.7309 1.68514 29.4542 1.6303 29.2214 1.48831L27.4532 0.40992C26.5568 -0.136691 25.4433 -0.136589 24.5469 0.40992L22.7789 1.48801C22.5461 1.63009 22.2695 1.68474 21.9999 1.64249L19.9581 1.32114C18.9179 1.15742 17.8865 1.5849 17.267 2.4366L16.0517 4.10741C15.8909 4.32831 15.6563 4.48533 15.3907 4.54962L13.3799 5.0362C12.3587 5.2832 11.5705 6.07123 11.3233 7.09254L10.8366 9.10349C10.7723 9.36897 10.6154 9.60368 10.3944 9.76425L8.72321 10.9798C7.87151 11.5992 7.44413 12.6303 7.60775 13.6708L7.9291 15.7133C7.97145 15.9827 7.9166 16.2594 7.77462 16.4922L6.69633 18.2605C6.14992 19.1569 6.14992 20.2704 6.69643 21.1667L7.77452 22.9347C7.9165 23.1677 7.97145 23.4443 7.92899 23.7137L7.60765 25.7555C7.44383 26.7959 7.87131 27.8272 8.72301 28.4467L10.3938 29.662C10.6147 29.8226 10.7717 30.0573 10.836 30.3228L11.3226 32.3336C11.5696 33.355 12.3576 34.143 13.379 34.3902L14.2187 34.5934L8.53583 47.2698C8.41507 47.5393 8.44849 47.8527 8.62348 48.0906C8.79837 48.3284 9.08752 48.4539 9.38083 48.4187L13.9534 47.872L16.5875 51.6492C16.7417 51.8701 16.9933 51.9999 17.2595 51.9999C17.2849 51.9999 17.3107 51.9987 17.3363 51.9964C17.6303 51.9687 17.8867 51.785 18.0075 51.5158L23.8113 38.5687L24.5467 39.0171C24.9949 39.2904 25.4973 39.427 25.9998 39.427C26.5024 39.427 27.0048 39.2903 27.453 39.0171L28.2149 38.5525L34.026 51.5158C34.1468 51.7852 34.4031 51.9687 34.6972 51.9964C34.7229 51.9988 34.7486 52 34.774 52C35.0402 52 35.2919 51.8702 35.446 51.6493L38.0801 47.8721L42.6527 48.4188C42.9458 48.4537 43.2351 48.3285 43.41 48.0907C43.5849 47.8528 43.6185 47.5394 43.4977 47.2699L37.8119 34.5865L38.62 34.391C39.6412 34.144 40.4294 33.3559 40.6766 32.3346L41.1633 30.3237C41.2275 30.0582 41.3846 29.8235 41.6055 29.6629L43.2767 28.4474C44.1284 27.828 44.5557 26.7969 44.3921 25.7564L44.0708 23.7139C44.0284 23.4444 44.0833 23.1678 44.2253 22.935L45.3037 21.1667ZM17.104 49.5247L15.0164 46.5313C14.8434 46.2831 14.5474 46.1502 14.247 46.1864L10.6234 46.6196L15.8009 35.0696C15.8956 35.1392 15.9805 35.2226 16.0505 35.319L17.266 36.9902C17.3814 37.1489 17.5112 37.2928 17.6527 37.421L14.9275 43.5002C14.7424 43.9133 14.9271 44.3981 15.34 44.5832C15.4489 44.632 15.5628 44.6551 15.6747 44.6551C15.9877 44.6551 16.2867 44.4747 16.4229 44.1707L19.1385 38.113C19.4057 38.1497 19.6808 38.1491 19.957 38.1056L21.9994 37.7843C22.1217 37.7651 22.2453 37.7668 22.3656 37.7867L17.104 49.5247ZM41.4104 46.6194L37.7866 46.1864C37.4859 46.1503 37.1902 46.2831 37.0172 46.5313L34.9296 49.5247L29.6657 37.7822C29.7761 37.7671 29.8888 37.7671 30.0002 37.7846L32.0419 38.1059C32.3292 38.1511 32.6155 38.1497 32.8929 38.1084L35.6105 44.1709C35.7469 44.475 36.0457 44.6553 36.3587 44.6553C36.4708 44.6553 36.5846 44.6323 36.6934 44.5834C37.1063 44.3984 37.2911 43.9134 37.1059 43.5004L34.3703 37.398C34.5023 37.2756 34.6242 37.14 34.733 36.9905L35.9483 35.3197C36.0249 35.2143 36.1187 35.1241 36.2242 35.051L41.4104 46.6194ZM43.9042 20.3134L42.8259 22.0817C42.4821 22.6458 42.3491 23.3159 42.4518 23.9685L42.7731 26.0109C42.8407 26.4404 42.6641 26.8661 42.3126 27.1218L40.6413 28.3374C40.1064 28.7266 39.7259 29.2951 39.5703 29.9381L39.0837 31.949C38.9816 32.3706 38.6564 32.6959 38.2347 32.798L36.2238 33.2846C35.5807 33.4401 35.0121 33.8206 34.6229 34.3556L33.4076 36.0264C33.1519 36.3782 32.7263 36.5545 32.2966 36.4868L30.2548 36.1655C29.6021 36.0628 28.9319 36.1956 28.3677 36.5396L26.5998 37.6177C26.2298 37.8432 25.7699 37.8432 25.4001 37.6177L23.6318 36.5395C23.192 36.2713 22.6879 36.1316 22.1777 36.1316C22.0335 36.1316 21.8886 36.1427 21.7449 36.1654L19.7023 36.4867C19.2727 36.5544 18.8472 36.3777 18.5915 36.0262L17.3758 34.355C16.9867 33.8201 16.4182 33.4396 15.7752 33.284L13.7643 32.7974C13.3427 32.6953 13.0174 32.3701 12.9153 31.9484L12.4287 29.9376C12.2731 29.2945 11.8928 28.7258 11.3576 28.3366L9.68694 27.1212C9.33533 26.8655 9.15892 26.4397 9.22656 26.0102L9.5479 23.9684C9.65058 23.3157 9.51774 22.6456 9.17375 22.0814L8.09566 20.3133C7.87009 19.9433 7.87009 19.4835 8.09566 19.1136L9.17395 17.3453C9.51784 16.7812 9.65079 16.1111 9.54811 15.4585L9.22676 13.416C9.15922 12.9865 9.33574 12.5609 9.68725 12.3051L11.3586 11.0895C11.8935 10.7004 12.2739 10.1319 12.4295 9.48892L12.9162 7.47797C13.0183 7.05639 13.3435 6.73108 13.7652 6.62901L15.7761 6.14242C16.4192 5.98683 16.9878 5.60638 17.3769 5.07134L18.5922 3.40054C18.8479 3.04893 19.2734 2.87231 19.7032 2.94005L21.745 3.26139C22.3978 3.36428 23.068 3.23123 23.6321 2.88724L25.4 1.80915C25.77 1.58368 26.2299 1.58368 26.5997 1.80915L28.368 2.88734C28.9321 3.23143 29.6024 3.36438 30.2549 3.2616L32.2974 2.94025C32.7268 2.87292 33.1526 3.04923 33.4083 3.40074L34.6239 5.07195C35.0131 5.60688 35.5816 5.98734 36.2246 6.14293L38.2355 6.62962C38.6571 6.73169 38.9824 7.05689 39.0845 7.47858L39.5711 9.48942C39.7266 10.1325 40.107 10.7012 40.6421 11.0904L42.3129 12.3057C42.6646 12.5614 42.841 12.9871 42.7733 13.4167L42.452 15.4585C42.3493 16.1112 42.4821 16.7813 42.8261 17.3455L43.9042 19.1136C44.1299 19.4836 44.1299 19.9434 43.9042 20.3134Z" fill="#CF0038"/>
<path d="M35.5892 17.1638C35.4086 16.6079 34.9358 16.2197 34.3553 16.1508L29.4243 15.5661L27.3445 11.0573C27.0997 10.5265 26.5844 10.1967 25.9998 10.1967C25.4154 10.1967 24.9 10.5265 24.6552 11.0573L22.5754 15.5662L17.6444 16.1509C17.0639 16.2198 16.591 16.608 16.4105 17.1639C16.2299 17.7196 16.3843 18.3116 16.8133 18.7084L20.4589 22.0798L19.4912 26.9501C19.3774 27.5235 19.6004 28.0931 20.0734 28.4366C20.3343 28.6261 20.637 28.7221 20.9417 28.7221C21.1894 28.7221 21.4383 28.6587 21.6669 28.5307L25.9997 26.1055L30.3326 28.5307C30.8428 28.8163 31.4533 28.7803 31.9262 28.4367C32.3992 28.0931 32.6222 27.5234 32.5083 26.9501L31.5406 22.0799L35.1862 18.7085C35.6154 18.3117 35.7698 17.7198 35.5892 17.1638ZM30.0912 21.188C29.882 21.3815 29.7883 21.6698 29.8438 21.9493L30.834 26.9331L26.4 24.4512C26.2757 24.3817 26.1378 24.3468 25.9997 24.3468C25.8617 24.3468 25.7239 24.3816 25.5995 24.4512L21.1655 26.9331L22.1557 21.9493C22.2114 21.6697 22.1176 21.3815 21.9083 21.188L18.1777 17.7379L23.2239 17.1396C23.5069 17.1061 23.7522 16.9279 23.8716 16.6692L25.9998 12.0551L28.1281 16.6692C28.2475 16.9279 28.4927 17.1061 28.7758 17.1396L33.8218 17.7379L30.0912 21.188Z" fill="#CF0038"/>
</g>
<defs>
<clipPath id="clip0">
<rect width="52" height="52" fill="white"/>
</clipPath>
</defs>
</svg>
