<svg width="52" height="52" viewBox="0 0 52 52" fill="none" xmlns="http://www.w3.org/2000/svg">
<g clip-path="url(#clip0)">
<path d="M15.4023 22.5604L15.4004 22.5935C15.2723 24.8375 16.5292 26.9398 18.6036 27.9476L18.6248 27.958C19.3561 28.3078 19.9556 28.8845 20.3337 29.6017L20.3422 29.6173C21.3874 31.6074 23.5492 32.8138 25.8537 32.6928L25.8887 32.6909C26.7245 32.6441 27.5541 32.8597 28.2613 33.3078C30.2127 34.5284 32.6898 34.5284 34.6412 33.3078C35.3484 32.8597 36.178 32.6441 37.0138 32.6909L37.0488 32.6928C39.3495 32.8148 41.5142 31.6074 42.5617 29.614L42.5669 29.6031C42.9465 28.8841 43.5473 28.3064 44.281 27.9561L44.298 27.9476C46.3723 26.9393 47.6298 24.8375 47.5012 22.5931L47.4993 22.5619C47.4568 21.7715 47.6761 20.9891 48.1243 20.3363C49.4143 18.4548 49.4143 15.974 48.1247 14.092C47.6771 13.4397 47.4568 12.6578 47.4993 11.8674L47.5012 11.8343C47.6298 9.58982 46.3723 7.48809 44.2961 6.4793L44.2772 6.46984C43.5473 6.12097 42.9493 5.54708 42.5707 4.83185L42.5598 4.81058C41.5142 2.82041 39.3495 1.61449 37.0488 1.73504L37.0133 1.73693C36.178 1.78373 35.3484 1.56816 34.6417 1.12002H34.6407C32.6893 -0.100554 30.2123 -0.100554 28.2609 1.12002C27.5537 1.56769 26.724 1.78325 25.8882 1.73645L25.8533 1.73456C23.552 1.6126 21.3879 2.81994 20.3427 4.80963L20.3347 4.82429C19.956 5.54283 19.3561 6.12003 18.6239 6.47031L18.604 6.47977C16.5297 7.48762 15.2723 9.58982 15.4009 11.8343L15.4027 11.8655C15.4453 12.6559 15.2259 13.4383 14.7778 14.0906C13.4877 15.9725 13.4877 18.4539 14.7778 20.3353C15.2255 20.9877 15.4453 21.77 15.4023 22.5604ZM16.3714 15.1902C17.063 14.1833 17.4019 12.9759 17.3357 11.7563L17.3338 11.7232C17.2658 10.236 18.1006 8.85474 19.4483 8.2227L19.4649 8.21467C20.5706 7.68522 21.4758 6.81351 22.0469 5.72908L22.0563 5.71112C22.7508 4.38844 24.2053 3.5867 25.7502 3.66895L25.7842 3.67037C27.0204 3.73986 28.2471 3.42124 29.2928 2.75848C30.6131 1.93263 32.2885 1.93263 33.6088 2.75848C34.6544 3.4203 35.8812 3.73939 37.1169 3.67084L37.1509 3.66895C38.7033 3.58764 40.1508 4.38844 40.8434 5.70734L40.8561 5.73145C41.4272 6.81446 42.3315 7.68474 43.4358 8.21372L43.4519 8.22176C44.8209 8.88735 45.6519 10.2616 45.5682 11.7237L45.5663 11.7582C45.5002 12.9778 45.8396 14.1847 46.5312 15.1916C47.367 16.4108 47.3665 18.018 46.5302 19.2367C45.8391 20.2441 45.5002 21.4514 45.5663 22.6711L45.5682 22.7037C45.6519 24.1658 44.8209 25.5405 43.4514 26.2066L43.4372 26.2132C42.3305 26.7436 41.4243 27.6162 40.8528 28.7025L40.8457 28.7167C40.1508 30.0394 38.6986 30.8416 37.1514 30.7589L37.1178 30.757C35.8816 30.688 34.6544 31.0071 33.6083 31.6694C32.2885 32.4947 30.6131 32.4947 29.2933 31.6694C28.3422 31.0666 27.2388 30.7471 26.1128 30.748C26.0036 30.748 25.8939 30.7509 25.7842 30.757L25.7502 30.7584C24.2257 30.8553 22.7834 30.0574 22.0549 28.7144L22.045 28.6959C21.4749 27.6134 20.571 26.7436 19.4672 26.2146L19.4493 26.2056C18.0798 25.54 17.2487 24.1653 17.3329 22.7037L17.3348 22.6692C17.4005 21.4495 17.0611 20.2422 16.3699 19.2358C15.5346 18.0166 15.5351 16.4093 16.3714 15.1911V15.1902Z" fill="#CF0038"/>
<path d="M25.2043 27.2224C25.6576 27.5056 26.2547 27.3671 26.5378 26.9138L38.0066 8.54084C38.1938 8.24728 38.2094 7.87572 38.0468 7.56797C37.8841 7.25976 37.5684 7.0631 37.2204 7.05223C36.8725 7.04136 36.5454 7.21816 36.3639 7.5155L24.8956 25.8884C24.6124 26.3422 24.7504 26.9393 25.2043 27.2224Z" fill="#CF0038"/>
<path d="M26.2319 17.2616C28.5894 17.2616 30.5077 15.0743 30.5077 12.3859C30.5077 9.69756 28.5894 7.51074 26.2319 7.51074C23.8745 7.51074 21.9566 9.69756 21.9566 12.3859C21.9566 15.0743 23.8745 17.2616 26.2319 17.2616ZM26.2319 9.44702C27.522 9.44702 28.5714 10.7654 28.5714 12.3859C28.5714 14.0064 27.522 15.3253 26.2319 15.3253C24.9423 15.3253 23.8929 14.006 23.8929 12.3859C23.8929 10.7659 24.9423 9.44702 26.2319 9.44702Z" fill="#CF0038"/>
<path d="M32.3944 22.0428C32.3944 24.7312 34.3122 26.918 36.6697 26.918C39.0272 26.918 40.9455 24.7307 40.9455 22.0428C40.9455 19.3554 39.0276 17.1676 36.6702 17.1676C34.3122 17.1676 32.3944 19.354 32.3944 22.0428ZM39.0092 22.0428C39.0092 23.6633 37.9598 24.9817 36.6697 24.9817C35.3801 24.9817 34.3307 23.6633 34.3307 22.0428C34.3307 20.4223 35.3801 19.1039 36.6697 19.1039C37.9598 19.1039 39.0092 20.4214 39.0092 22.0428Z" fill="#CF0038"/>
<path d="M51.8744 38.1192C50.5924 35.844 47.7494 34.9775 45.4165 36.1508L37.8326 39.734C36.7855 37.7869 34.7769 36.5474 32.5664 36.485L25.5654 36.2921C24.4569 36.2605 23.3691 35.9792 22.3835 35.4705L21.6711 35.1013C18.0236 33.2 13.6759 33.2048 10.0321 35.1136L10.0766 33.4997C10.0912 32.9651 9.67004 32.5198 9.13539 32.5051L1.45834 32.2938C0.923693 32.2792 0.47886 32.7004 0.464205 33.235L0.000462642 50.0825C-0.0141919 50.6171 0.407006 51.0624 0.941657 51.0771L8.6187 51.2884H8.64565C9.1699 51.2879 9.59866 50.8705 9.61331 50.3467L9.63506 49.5407L11.6295 48.4728C12.4123 48.0516 13.328 47.9514 14.1831 48.1934L26.0925 51.5361C26.1133 51.5422 26.1341 51.547 26.1554 51.5517C27.0162 51.7318 27.8936 51.8221 28.7733 51.8216C30.6358 51.8226 32.4766 51.4212 34.1694 50.6441C34.211 50.6251 34.2512 50.6034 34.2895 50.5788L51.5572 39.4088C51.9878 39.1308 52.1268 38.565 51.8744 38.1192ZM1.96274 49.1677L2.37307 34.2566L8.11478 34.4145L7.70398 49.3261L1.96274 49.1677ZM33.2968 48.9139C31.1936 49.8631 28.8447 50.125 26.5841 49.6627L14.7064 46.3295C13.3701 45.9513 11.9386 46.1083 10.7157 46.7658L9.69651 47.3113L9.96975 37.3969C13.1989 35.2488 17.3409 35.0281 20.7805 36.8202L21.4929 37.1894C22.738 37.8323 24.1118 38.1873 25.5124 38.2275L32.5135 38.4203C34.48 38.4766 36.1502 39.8768 36.5491 41.8036L26.1208 41.5167C25.5862 41.502 25.1414 41.9232 25.1267 42.4579C25.1121 42.9925 25.5332 43.4378 26.0679 43.4525L37.5764 43.7692H37.6038C38.1276 43.7687 38.5563 43.3513 38.571 42.8276C38.5828 42.4068 38.5511 41.9856 38.4774 41.5715L46.2546 37.8961L46.2773 37.8852C47.3807 37.3265 48.7152 37.5132 49.6223 38.3532L33.2968 48.9139Z" fill="#CF0038"/>
</g>
<defs>
<clipPath id="clip0">
<rect width="52" height="52" fill="white"/>
</clipPath>
</defs>
</svg>
