<svg width="68" height="68" viewBox="0 0 68 68" fill="none" xmlns="http://www.w3.org/2000/svg">
<path d="M63.2397 30.7278L61.4788 23.6841C61.9602 23.5819 62.3215 23.1547 62.3215 22.643V21.5073C62.3215 19.0415 60.3153 17.0355 57.8497 17.0355H49.8289V14.693C49.8289 13.4796 48.8418 12.4926 47.6284 12.4926H6.74316C5.52978 12.4926 4.54272 13.4796 4.54272 14.693V33.9999C4.54272 34.5879 5.01938 35.0647 5.60748 35.0647C6.19544 35.0647 6.67223 34.588 6.67223 33.9999V14.693C6.67223 14.6538 6.70398 14.6221 6.74316 14.6221H47.6283C47.6675 14.6221 47.6992 14.6538 47.6992 14.693V34.0002C47.6992 34.5882 48.1759 35.065 48.764 35.065C49.3519 35.065 49.8287 34.5883 49.8287 34.0002V32.7932H62.3887C62.3897 32.7932 62.3905 32.7935 62.3915 32.7935C62.3925 32.7935 62.3935 32.7933 62.3944 32.7933C63.9399 32.7944 65.2522 33.8088 65.703 35.2067H62.3923C61.8043 35.2067 61.3275 35.6833 61.3275 36.2714V38.5428C61.3275 40.3824 62.824 41.8789 64.6636 41.8789H65.8704V46.5636H63.0863C62.1718 43.9229 59.6615 42.0208 56.7137 42.0208C53.766 42.0208 51.2555 43.9229 50.3411 46.5636H49.8285V38.5427C49.8285 37.9547 49.3518 37.4779 48.7637 37.4779C48.1757 37.4779 47.6989 37.9546 47.6989 38.5427V46.5633H25.6085C24.694 43.9226 22.1837 42.0205 19.2359 42.0205C16.2881 42.0205 13.7777 43.9226 12.8633 46.5633H6.74316C6.70398 46.5633 6.67223 46.5316 6.67223 46.4924V44.15H11.286C11.874 44.15 12.3508 43.6733 12.3508 43.0853C12.3508 42.4972 11.8741 42.0205 11.286 42.0205H1.06476C0.476797 42.0205 0 42.4972 0 43.0853C0 43.6733 0.476664 44.15 1.06476 44.15H4.54285V46.4924C4.54285 47.7058 5.52991 48.6929 6.74329 48.6929H12.4946C12.4943 48.7165 12.4927 48.74 12.4927 48.7638C12.4927 52.482 15.5178 55.5069 19.2359 55.5069C22.954 55.5069 25.9791 52.482 25.9791 48.7638C25.9791 48.7399 25.9775 48.7165 25.9772 48.6929H49.9724C49.9722 48.7165 49.9706 48.74 49.9706 48.7638C49.9706 52.482 52.9956 55.5069 56.7137 55.5069C60.4318 55.5069 63.4569 52.482 63.4569 48.7638C63.4569 48.7399 63.4553 48.7165 63.455 48.6929H66.9351C67.5231 48.6929 67.9999 48.2162 67.9999 47.6281V36.2712C68 33.4672 65.9312 31.1376 63.2397 30.7278ZM49.8289 19.1649H57.8497C59.1413 19.1649 60.1921 20.2157 60.1921 21.5073V21.5783H49.8289V19.1649ZM49.8289 30.6638V23.7076H59.2898L61.0288 30.6638H49.8289ZM19.2359 53.3778C16.6919 53.3778 14.6221 51.3082 14.6221 48.764C14.6221 46.2199 16.6919 44.1503 19.2359 44.1503C21.7799 44.1503 23.8497 46.2199 23.8497 48.764C23.8497 51.3082 21.7799 53.3778 19.2359 53.3778ZM56.714 53.3778C54.17 53.3778 52.1002 51.3082 52.1002 48.764C52.1002 46.2199 54.17 44.1503 56.714 44.1503C59.258 44.1503 61.3278 46.2199 61.3278 48.764C61.3278 51.3082 59.258 53.3778 56.714 53.3778ZM65.8706 39.7494H64.6639C63.9985 39.7494 63.4571 39.2081 63.4571 38.5427V37.3359H65.8705V39.7494H65.8706Z" fill="#CF0038"/>
<path d="M19.2359 46.5637C18.0225 46.5637 17.0355 47.5508 17.0355 48.7642C17.0355 49.9775 18.0225 50.9646 19.2359 50.9646C20.4493 50.9646 21.4363 49.9775 21.4363 48.7642C21.4363 47.5508 20.4493 46.5637 19.2359 46.5637Z" fill="#CF0038"/>
<path d="M56.714 46.5637C55.5006 46.5637 54.5135 47.5508 54.5135 48.7642C54.5135 49.9775 55.5006 50.9646 56.714 50.9646C57.9274 50.9646 58.9144 49.9775 58.9144 48.7642C58.9144 47.5508 57.9274 46.5637 56.714 46.5637Z" fill="#CF0038"/>
<path d="M44.2212 42.0209H28.3215C27.7335 42.0209 27.2567 42.4975 27.2567 43.0856C27.2567 43.6737 27.7334 44.1504 28.3215 44.1504H44.2212C44.8092 44.1504 45.286 43.6737 45.286 43.0856C45.286 42.4975 44.8093 42.0209 44.2212 42.0209Z" fill="#CF0038"/>
<path d="M16.9645 37.4781H3.33612C2.74816 37.4781 2.27136 37.9548 2.27136 38.5429C2.27136 39.131 2.74803 39.6077 3.33612 39.6077H16.9645C17.5525 39.6077 18.0293 39.131 18.0293 38.5429C18.0293 37.9548 17.5525 37.4781 16.9645 37.4781Z" fill="#CF0038"/>
<path d="M37.0243 23.0257C36.6086 22.61 35.9343 22.61 35.5186 23.0259L26.0501 32.4942L21.1245 27.5686C20.7087 27.1528 20.0345 27.1528 19.6188 27.5686C19.203 27.9844 19.203 28.6585 19.6188 29.0743L25.2973 34.7528C25.5052 34.9608 25.7777 35.0647 26.0501 35.0647C26.3225 35.0647 26.5952 34.9608 26.8029 34.7528L37.0241 24.5316C37.44 24.1156 37.44 23.4416 37.0243 23.0257Z" fill="#CF0038"/>
</svg>
