<svg width="20" height="22" viewBox="0 0 20 22" fill="none" xmlns="http://www.w3.org/2000/svg">
<path d="M5.0693 21.7838C-1.69497 16.2033 -1.68492 7.16359 5.0693 1.59136C5.36607 1.34653 5.82592 1.30639 6.17675 1.48729L9.55264 3.22808C9.73064 3.31986 9.86389 3.46033 9.9291 3.62494C9.9943 3.78955 9.98732 3.96783 9.90936 4.12862L8.22144 7.60999C8.14933 7.75871 8.02057 7.88405 7.85458 7.96713C7.68859 8.05021 7.49436 8.08651 7.30118 8.07057L4.3944 7.83081C3.298 10.3342 3.32086 13.0932 4.3944 15.5443L7.30123 15.3045C7.49441 15.2886 7.68864 15.3249 7.85464 15.408C8.02063 15.4911 8.14938 15.6164 8.22149 15.7651L9.90941 19.2465C9.98736 19.4073 9.99434 19.5856 9.92914 19.7502C9.86393 19.9148 9.73069 20.0553 9.55269 20.1471L6.1768 21.8879C6.00513 21.9764 5.80216 22.0143 5.60103 21.9953C5.39989 21.9764 5.21245 21.9019 5.0693 21.7838ZM12.871 4.10245C13.4873 4.96385 13.4873 6.03639 12.871 6.89779C12.6653 7.18538 12.1883 7.23977 11.8961 7.00869L11.5849 6.76265C11.3812 6.6016 11.3353 6.3492 11.4672 6.14347C11.5941 5.94519 11.6604 5.72435 11.6604 5.50012C11.6604 5.27589 11.5941 5.05505 11.4672 4.85677C11.3352 4.65104 11.3812 4.39864 11.5849 4.23759L11.8961 3.99155C12.1883 3.76047 12.6653 3.81487 12.871 4.10245ZM17.6516 0.184266C20.7839 3.261 20.7814 7.74169 17.6516 10.8159C17.4186 11.0448 16.999 11.0628 16.7374 10.856L16.4355 10.6172C16.198 10.4294 16.1762 10.1219 16.387 9.91346C18.9749 7.35519 18.9727 3.6429 16.387 1.08674C16.1762 0.87834 16.1979 0.57077 16.4355 0.382953L16.7374 0.144176C16.999 -0.0626323 17.4186 -0.0446284 17.6516 0.184266ZM15.2572 2.11532C17.1348 4.10572 17.1378 6.89125 15.2572 8.88487C15.0286 9.12726 14.5959 9.15347 14.3272 8.94091L14.0242 8.70118C13.795 8.5199 13.7639 8.22445 13.9573 8.01665C15.3394 6.53148 15.3393 4.46863 13.9573 2.98355C13.7639 2.77575 13.795 2.48034 14.0242 2.29901L14.3272 2.05929C14.5959 1.84673 15.0286 1.87294 15.2572 2.11532Z" fill="#CF0038"/>
</svg>
